<svg width="13" height="14" viewBox="0 0 13 14" fill="none" xmlns="http://www.w3.org/2000/svg">
<rect width="13" height="14" fill="#1E1E1E"/>
<g clip-path="url(#clip0_3841_41595)">
<rect width="1440" height="1166" transform="translate(-751.511 -484.774)" fill="white"/>
<g clip-path="url(#clip1_3841_41595)">
<g clip-path="url(#clip2_3841_41595)">
<g clip-path="url(#clip3_3841_41595)" filter="url(#filter0_d_3841_41595)">
<g clip-path="url(#clip4_3841_41595)">
<rect width="335" height="48" transform="translate(-309.511 -4.77441)" fill="white"/>
</g>
</g>
</g>
</g>
<rect width="1440" height="1166" transform="translate(-752 -485.106)" fill="black" fill-opacity="0.25"/>
<g filter="url(#filter1_d_3841_41595)">
<g clip-path="url(#clip5_3841_41595)">
<rect x="-346.5" y="-223.284" width="629" height="642.355" rx="10" fill="white"/>
<g clip-path="url(#clip6_3841_41595)">
<rect x="-181.5" y="-8.92871" width="200" height="32" rx="4" fill="white"/>
<path d="M-5.5 -8.92871H14.5C16.7091 -8.92871 18.5 -7.13785 18.5 -4.92871V19.0713C18.5 21.2804 16.7091 23.0713 14.5 23.0713H-5.5V-8.92871Z" fill="#333333"/>
<path d="M0 12.3525C0 13.0254 0.623884 13.5713 1.39286 13.5713H11.6071C12.3761 13.5713 13 13.0254 13 12.3525V5.44629H0V12.3525ZM9.28571 7.37598C9.28571 7.2084 9.44241 7.07129 9.63393 7.07129H10.7946C10.9862 7.07129 11.1429 7.2084 11.1429 7.37598V8.3916C11.1429 8.55918 10.9862 8.69629 10.7946 8.69629H9.63393C9.44241 8.69629 9.28571 8.55918 9.28571 8.3916V7.37598ZM9.28571 10.626C9.28571 10.4584 9.44241 10.3213 9.63393 10.3213H10.7946C10.9862 10.3213 11.1429 10.4584 11.1429 10.626V11.6416C11.1429 11.8092 10.9862 11.9463 10.7946 11.9463H9.63393C9.44241 11.9463 9.28571 11.8092 9.28571 11.6416V10.626ZM5.57143 7.37598C5.57143 7.2084 5.72812 7.07129 5.91964 7.07129H7.08036C7.27187 7.07129 7.42857 7.2084 7.42857 7.37598V8.3916C7.42857 8.55918 7.27187 8.69629 7.08036 8.69629H5.91964C5.72812 8.69629 5.57143 8.55918 5.57143 8.3916V7.37598ZM5.57143 10.626C5.57143 10.4584 5.72812 10.3213 5.91964 10.3213H7.08036C7.27187 10.3213 7.42857 10.4584 7.42857 10.626V11.6416C7.42857 11.8092 7.27187 11.9463 7.08036 11.9463H5.91964C5.72812 11.9463 5.57143 11.8092 5.57143 11.6416V10.626ZM1.85714 7.37598C1.85714 7.2084 2.01384 7.07129 2.20536 7.07129H3.36607C3.55759 7.07129 3.71429 7.2084 3.71429 7.37598V8.3916C3.71429 8.55918 3.55759 8.69629 3.36607 8.69629H2.20536C2.01384 8.69629 1.85714 8.55918 1.85714 8.3916V7.37598ZM1.85714 10.626C1.85714 10.4584 2.01384 10.3213 2.20536 10.3213H3.36607C3.55759 10.3213 3.71429 10.4584 3.71429 10.626V11.6416C3.71429 11.8092 3.55759 11.9463 3.36607 11.9463H2.20536C2.01384 11.9463 1.85714 11.8092 1.85714 11.6416V10.626ZM11.6071 2.19629H10.2143V0.977539C10.2143 0.754102 10.0054 0.571289 9.75 0.571289H8.82143C8.56607 0.571289 8.35714 0.754102 8.35714 0.977539V2.19629H4.64286V0.977539C4.64286 0.754102 4.43393 0.571289 4.17857 0.571289H3.25C2.99464 0.571289 2.78571 0.754102 2.78571 0.977539V2.19629H1.39286C0.623884 2.19629 0 2.74219 0 3.41504V4.63379H13V3.41504C13 2.74219 12.3761 2.19629 11.6071 2.19629Z" fill="white"/>
</g>
<rect x="-181" y="-8.42871" width="199" height="31" rx="3.5" stroke="#333333"/>
</g>
</g>
</g>
<defs>
<filter id="filter0_d_3841_41595" x="-723.511" y="-242.774" width="1384" height="822" filterUnits="userSpaceOnUse" color-interpolation-filters="sRGB">
<feFlood flood-opacity="0" result="BackgroundImageFix"/>
<feColorMatrix in="SourceAlpha" type="matrix" values="0 0 0 0 0 0 0 0 0 0 0 0 0 0 0 0 0 0 127 0" result="hardAlpha"/>
<feOffset dy="4"/>
<feGaussianBlur stdDeviation="2"/>
<feComposite in2="hardAlpha" operator="out"/>
<feColorMatrix type="matrix" values="0 0 0 0 0 0 0 0 0 0 0 0 0 0 0 0 0 0 0.25 0"/>
<feBlend mode="normal" in2="BackgroundImageFix" result="effect1_dropShadow_3841_41595"/>
<feBlend mode="normal" in="SourceGraphic" in2="effect1_dropShadow_3841_41595" result="shape"/>
</filter>
<filter id="filter1_d_3841_41595" x="-350.5" y="-223.284" width="637" height="650.355" filterUnits="userSpaceOnUse" color-interpolation-filters="sRGB">
<feFlood flood-opacity="0" result="BackgroundImageFix"/>
<feColorMatrix in="SourceAlpha" type="matrix" values="0 0 0 0 0 0 0 0 0 0 0 0 0 0 0 0 0 0 127 0" result="hardAlpha"/>
<feOffset dy="4"/>
<feGaussianBlur stdDeviation="2"/>
<feComposite in2="hardAlpha" operator="out"/>
<feColorMatrix type="matrix" values="0 0 0 0 0 0 0 0 0 0 0 0 0 0 0 0 0 0 0.25 0"/>
<feBlend mode="normal" in2="BackgroundImageFix" result="effect1_dropShadow_3841_41595"/>
<feBlend mode="normal" in="SourceGraphic" in2="effect1_dropShadow_3841_41595" result="shape"/>
</filter>
<clipPath id="clip0_3841_41595">
<rect width="1440" height="1166" fill="white" transform="translate(-751.511 -484.774)"/>
</clipPath>
<clipPath id="clip1_3841_41595">
<rect width="1440" height="1118" fill="white" transform="translate(-751.511 -436.774)"/>
</clipPath>
<clipPath id="clip2_3841_41595">
<rect width="1376" height="814" fill="white" transform="translate(-719.511 -242.774)"/>
</clipPath>
<clipPath id="clip3_3841_41595">
<rect width="1376" height="814" fill="white" transform="translate(-719.511 -242.774)"/>
</clipPath>
<clipPath id="clip4_3841_41595">
<rect width="335" height="814" fill="white" transform="translate(-309.511 -242.774)"/>
</clipPath>
<clipPath id="clip5_3841_41595">
<rect x="-346.5" y="-223.284" width="629" height="642.355" rx="10" fill="white"/>
</clipPath>
<clipPath id="clip6_3841_41595">
<rect x="-181.5" y="-8.92871" width="200" height="32" rx="4" fill="white"/>
</clipPath>
</defs>
</svg>
